<?xml version="1.0" encoding="UTF-8"?>
<svg id="Layer_1" data-name="Layer 1" xmlns="http://www.w3.org/2000/svg" viewBox="0 0 2746.4 1135.84">
  <defs>
    <style>
      .cls-1, .cls-2 {
        stroke-width: 0px;
      }

      .cls-1, .cls-3 {
        fill: #ed1c24;
      }

      .cls-2 {
        fill: #26a74a;
      }

      .cls-3 {
        font-family: Gotham-Black, Gotham;
        font-size: 92.67px;
        font-weight: 800;
      }
    </style>
  </defs>
  <path class="cls-1" d="M122.25,757.25c-2.34.02-6.41,0-6.41,0,0,0,.06-6.81.07-9.34.18-40.56.23-81.11-.07-121.67-.02-2.98.15-11.1.15-11.1,0,0,4.34-.24,6.63-.2,9.4.16,23.33-.19,26.89-.7,3.57-.51,6-1.38,6-1.38l.1,9.9s.04,48.17-.04,72.26c-.05,16.48-.13,16.49,15.99,16.5,20.2.02,40.4.05,60.61.03,31.53-.03,63.49-24.81,73.72-54.77,13.46-39.39-7.44-76.67-39.01-93.81-5.19-2.82-4.89-5.41-1.02-9.03,9.36-8.76,20.38-18.94,29.19-28.26,3.37-3.56,6.06-3.7,10.01-1.17,19.63,12.58,37.12,27.7,47.11,48.73,18.8,39.56,20.9,81.22,0,119.6-21.18,38.89-59.85,63.72-104.84,64.29-19.59.25-39.18.04-58.77.04,0,.01-43.87-.13-66.32.08Z"/>
  <path class="cls-2" d="M0,556.93c15.19,4.44,33.66,10.07,45.58,11.14,62.02,5.58,112.06-17.7,153.62-62.5,16.45-17.73,34.93-41.55,53.76-56.94,33.08-27.05,65.33-40.21,108.87-39.95,19.95.12,29.68,2.29,48.32,9.52,7.77,3.06,15.28,8.49,18.31,9.91-11.85-.29-21.71-.34-34.86,1.6-32.34,5.83-47.83,20.85-72.08,42.11-21.24,18.63-40.2,39.57-60.29,59.37-27.85,27.45-58.99,49.72-97.6,59.08-54.3,13.16-105.11,2.76-153.09-24.47-.32-.18-9.54-7.64-10.51-8.87Z"/>
  <path class="cls-1" d="M282.32,405.43s-11.58-29.64-21.2-36.78-23.21-15.61-39.82-15.76c-17.96-.16-35.92-.21-53.87-.17-6.37.01-11.52.27-11.52.27,0,0-.29,5.14-.31,11.86-.11,45.3-.35,150.47-.26,153.95l-39.45,23.9c.01-3.82.16-184.23.21-216.75.01-12.26-.71-10.76,10.38-10.76,31.01-.04,62.02-.19,93.04.11,13.99.14,29.02.24,42.4,6.44,8.93,4.13,16.67,8.9,23.83,15.44,14.75,13.48,28.68,27.02,36.11,54.41l-39.55,13.84Z"/>
  <text class="cls-3" transform="translate(418.79 513.96)"><tspan x="0" y="0">BARAKAT</tspan><tspan x="0" y="98.48">AL WAHA</tspan></text>
  <g>
    <polygon class="cls-2" points="925 699.64 925 718.67 893.68 718.67 893.68 699.64 883.19 699.64 883.19 743.65 850.15 743.65 850.15 754.13 883.19 754.13 892.91 754.13 893.68 754.13 893.68 729.16 925 729.16 930.66 729.16 935.49 729.16 935.49 699.64 925 699.64"/>
    <polygon class="cls-2" points="739 718.67 686.69 718.67 686.69 706.2 676.2 706.2 676.2 718.67 676.2 728.29 676.2 729.16 749.49 729.16 749.49 728.29 749.49 718.67 749.49 699.64 739 699.64 739 718.67"/>
    <rect class="cls-2" x="641.38" y="663.2" width="10.49" height="65.97"/>
    <rect class="cls-2" x="533.87" y="663.2" width="10.49" height="65.97"/>
    <path class="cls-2" d="M618.65,718.67h-15.84v-17.72h-28.15v28.21h17.66v14.61h-34.17v10.49h44.66v-25.1h26.33v-65.97h-10.49v55.48ZM585.15,711.44h7.17v7.24h-7.17v-7.24Z"/>
    <path class="cls-2" d="M471.23,706.2v7.67h10.49v-2.43h28.65v7.24h-54.7v-12.48h-.04v-5.24h-28.3v28.21h93.53v-28.21h-49.63v5.24ZM437.82,711.44h7.36v7.24h-7.36v-7.24Z"/>
    <polygon class="cls-2" points="837.55 695.61 795.09 695.61 795.09 687.94 837.55 687.94 837.55 677.45 795.09 677.45 784.6 677.45 784.6 687.94 784.6 695.61 784.6 706.1 795.09 706.1 827.06 706.1 827.06 718.67 771.9 718.67 771.9 663.2 761.41 663.2 761.41 718.67 761.41 725.58 761.41 729.16 837.55 729.16 837.55 728.29 837.55 728.29 837.55 699.64 837.55 699.64 837.55 695.61"/>
    <rect class="cls-2" x="916.72" y="734.72" width="11" height="11"/>
    <rect class="cls-2" x="698.81" y="685.11" width="11" height="11"/>
    <rect class="cls-2" x="714.35" y="685.11" width="11" height="11"/>
    <rect class="cls-2" x="428.21" y="685.11" width="11" height="11"/>
    <rect class="cls-2" x="443.75" y="685.11" width="11" height="11"/>
  </g>
</svg>